<?xml version="1.0" standalone="no"?>
<!DOCTYPE svg PUBLIC "-//W3C//DTD SVG 20010904//EN"
 "http://www.w3.org/TR/2001/REC-SVG-20010904/DTD/svg10.dtd">
<svg version="1.0" xmlns="http://www.w3.org/2000/svg"
 width="529pt" height="216pt" viewBox="0 0 529 216"
 preserveAspectRatio="xMidYMid meet">

<g transform="translate(0,216) scale(0.1,-0.1)"
fill="#0066CC" stroke="none">
<!-- u -->
<path d="M110 673 c0 -358 18 -450 106 -536 52 -52 98 -74 184 -88 85 -14 197
-1 260 31 86 44 152 140 170 251 5 35 10 178 10 317 l0 252 -99 0 -99 0 -4
-272 c-3 -243 -5 -277 -22 -311 -28 -57 -69 -81 -137 -82 -66 0 -101 20 -134
76 -18 31 -20 55 -23 312 l-3 277 -105 0 -104 0 0 -227z"/>

<!-- n -->
<path d="M1439 907 c-47 -13 -133 -60 -144 -77 -3 -6 -13 -10 -21 -10 -10 0
-14 12 -14 40 l0 40 -100 0 -100 0 0 -420 0 -420 99 0 98 0 6 248 c6 282 13
318 77 376 87 78 209 51 241 -55 5 -19 13 -154 16 -301 l6 -268 99 0 99 0 -4
323 c-4 356 -6 374 -65 438 -71 79 -192 114 -293 86z"/>

<!-- dot on i -->
<path d="M2016 1221 c-39 -26 -55 -57 -56 -109 0 -85 46 -132 131 -132 44 0
55 4 84 33 41 41 53 93 33 145 -28 74 -127 106 -192 63z"/>

<!-- body of i -->
<path d="M1980 480 l0 -420 105 0 105 0 0 420 0 420 -105 0 -105 0 0 -420z"/>

<!-- v -->
<path d="M2304 883 c4 -10 84 -199 178 -420 l172 -403 66 0 65 0 175 411 c96
227 177 416 178 420 2 5 -43 9 -101 9 l-104 0 -103 -245 c-57 -135 -107 -245
-110 -245 -4 0 -53 110 -110 245 l-104 245 -104 0 c-95 0 -104 -2 -98 -17z"/>

<!-- e -->
<path d="M3560 906 c-81 -18 -148 -57 -208 -120 -65 -68 -101 -145 -115 -243
-28 -194 64 -377 228 -455 127 -59 298 -60 422 -4 54 25 153 110 153 131 0 7
-36 29 -81 49 l-80 37 -45 -30 c-112 -74 -262 -63 -346 26 -25 26 -58 90 -58
113 0 7 113 10 340 10 l340 0 0 28 c-1 68 -23 172 -50 229 -85 184 -288 276
-500 229z m234 -194 c44 -24 106 -96 106 -124 0 -4 -103 -8 -230 -8 -126 0
-230 3 -230 7 0 4 14 29 32 55 71 104 205 133 322 70z"/>

<!-- hollow e outside --> 
<path d="M4567 939 c-96 -23 -199 -99 -258 -190 -91 -142 -93 -360 -5 -497 29
-46 109 -122 156 -150 69 -40 145 -55 265 -50 98 4 118 8 178 36 68 32 177
123 177 149 0 8 -40 33 -92 58 l-91 43 -32 -24 c-102 -77 -254 -76 -339 4 -27
25 -56 78 -56 102 0 7 111 10 335 10 l335 0 0 60 c0 216 -130 394 -325 445
-64 16 -187 18 -248 4z m227 -24 c126 -27 221 -102 277 -220 26 -56 49 -155
49 -217 l0 -28 -334 0 c-184 0 -337 -4 -340 -8 -14 -23 19 -90 69 -139 42 -41
63 -53 108 -63 79 -18 153 -6 222 35 l57 35 74 -34 c41 -19 74 -39 74 -44 0
-16 -85 -89 -129 -111 -129 -66 -306 -67 -439 -3 -62 30 -149 119 -179 183
-102 218 -12 492 193 586 95 43 185 52 298 28z"/> 

<!-- hollow e inside -->
<path d="M4571 744 c-39 -20 -62 -40 -88 -80 -19 -29 -32 -58 -28 -63 8 -14
461 -15 470 -1 3 5 -3 27 -15 49 -56 110 -217 155 -339 95z m190 -4 c51 -14
100 -49 122 -88 l19 -32 -212 0 -211 0 22 33 c57 80 160 115 260 87z"/>

</g>
</svg>
